<?xml version="1.0" encoding="utf-8"?>
<!-- Generator: Adobe Illustrator 26.0.1, SVG Export Plug-In . SVG Version: 6.00 Build 0)  -->
<svg version="1.1" id="Layer_1" xmlns="http://www.w3.org/2000/svg" xmlns:xlink="http://www.w3.org/1999/xlink" x="0px" y="0px"
	 viewBox="0 0 1080 1080" style="enable-background:new 0 0 1080 1080;" xml:space="preserve">
<style type="text/css">
	.st0{fill:#231F20;}
	.st1{fill:#FFFFFF;}
</style>
<g>
	<g>
		<path class="st0" d="M830,929c-63,0-114.5-6.3-162-19.8c-23.2-6.6-46.6-16.7-75.9-32.8l-0.4-0.2c-18.5-10.4-34.4-25.4-45.9-43.3
			l-0.2-0.3c-19.6-31.1-47.7-48.2-91.1-55.3c-7.2-1.2-14.7-2.3-21.9-3.4c-22.2-3.4-45.3-6.9-68.4-12.7
			c-61.7-15.6-110.1-45.9-143.9-90.2c-21.8-28.6-34.5-61.3-36.5-94.5c-2.1-34.5,7.1-67.8,26.8-96.4c26.5-38.4,66.4-63.5,118.7-74.6
			c11.9-2.5,24.2-4.3,36.8-5.3c-18.7-6.9-37.9-14.2-56.9-22.1c-64.6-26.8-114.8-73.4-149-138.3c-15.5-29.4-7.3-51.2-1-61.5
			c10.4-17.2,29.3-27.1,51.9-27.1c0.9,0,1.7,0,2.7,0l0.3,0c21.5,0.8,43.1,3.6,64.1,8.2c103.5,22.3,208.5,60.4,330.4,119.8
			c123.4,60.2,225.3,123.7,311.8,194.2c28.3,23.1,57.8,48.6,80.1,84.2c21.7,34.6,33.4,66,36.8,98.8c3.3,31.8-3.7,60.7-20.4,83.5
			c-7.2,9.8-15.9,18.2-25.9,24.9c6,4.8,11.5,10.1,16.5,16.1c18.6,22.3,25.4,49.9,18.6,75.9c-6.6,25.4-25.3,45.7-51.3,55.7
			c-21,8.1-43.1,12.9-65.6,14.3l-0.3,0C887.2,927.7,858.7,929,830,929z M747.3,719.3c-0.3-0.3-0.6-0.7-0.9-1c-0.4,0-0.8,0.1-1.2,0.1
			c0,0.2,0.1,0.3,0.2,0.5C746,719.1,746.6,719.2,747.3,719.3z"/>
		<path class="st0" d="M346.6,916.5c-17.7,0-35.2-2.9-52-8.6c-26.7-9.1-45.6-28.1-52-52.3c-6.3-24.2,0.8-50.1,19.6-71.1
			c10.5-11.7,22.1-21.2,32.4-29.6c5.6-4.6,10.8-8.9,15.5-13.1c20.3-18.7,42.7-28.1,66.7-28.1c13,0,26.5,2.9,40,8.5
			c6,2.5,17,3.3,27.6,4.1c2.4,0.2,4.8,0.4,7.2,0.6l0.2,0c32,2.8,59,17.2,80.3,42.8l27.7,33.2l-32.1,29
			c-39.4,35.6-94.1,77.3-167.4,84.1l-0.5,0C355.4,916.3,351,916.5,346.6,916.5z"/>
		<path class="st0" d="M143.9,554.5c-0.3,0-0.6,0-0.9,0c-27.3-0.4-52.9-11.7-72.1-31.6c-19.1-19.8-29.3-45.5-28.8-72.5
			c0.3-27.2,11.2-52.7,30.5-71.8c19.4-19.2,45-29.7,72.3-29.7c0.4,0,0.7,0,1.1,0c27.5,0.3,53.2,11.3,72.4,30.9s29.6,45.6,29.3,73
			l-0.5,44.5H237c-5,10.1-11.7,19.3-19.9,27.4c-19.4,19.2-45,29.7-72.2,29.7c0,0,0,0,0,0C144.6,554.5,144.2,554.5,143.9,554.5z"/>
		<path class="st0" d="M830,929c-63,0-114.5-6.3-162-19.8c-23.2-6.6-46.6-16.7-75.9-32.8l-0.4-0.2c-18.5-10.4-34.4-25.4-45.9-43.3
			l-0.2-0.3c-19.6-31.1-47.7-48.2-91.1-55.3c-7.2-1.2-14.7-2.3-21.9-3.4c-22.2-3.4-45.3-6.9-68.4-12.7
			c-61.7-15.6-110.1-45.9-143.9-90.2c-21.8-28.6-34.5-61.3-36.5-94.5c-2.1-34.5,7.1-67.8,26.8-96.4c26.5-38.4,66.4-63.5,118.7-74.6
			c11.9-2.5,24.2-4.3,36.8-5.3c-18.7-6.9-37.9-14.2-56.9-22.1c-64.6-26.8-114.8-73.4-149-138.3c-15.5-29.4-7.3-51.2-1-61.5
			c10.4-17.2,29.3-27.1,51.9-27.1c0.9,0,1.7,0,2.7,0l0.3,0c21.5,0.8,43.1,3.6,64.1,8.2c103.5,22.3,208.5,60.4,330.4,119.8
			c123.4,60.2,225.3,123.7,311.8,194.2c28.3,23.1,57.8,48.6,80.1,84.2c21.7,34.6,33.4,66,36.8,98.8c3.3,31.8-3.7,60.7-20.4,83.5
			c-7.2,9.8-15.9,18.2-25.9,24.9c6,4.8,11.5,10.1,16.5,16.1c18.6,22.3,25.4,49.9,18.6,75.9c-6.6,25.4-25.3,45.7-51.3,55.7
			c-21,8.1-43.1,12.9-65.6,14.3l-0.3,0C887.2,927.7,858.7,929,830,929z M747.3,719.3c-0.3-0.3-0.6-0.7-0.9-1c-0.4,0-0.8,0.1-1.2,0.1
			c0,0.2,0.1,0.3,0.2,0.5C746,719.1,746.6,719.2,747.3,719.3z"/>
		<path class="st0" d="M346.6,916.5c-17.7,0-35.2-2.9-52-8.6c-26.7-9.1-45.6-28.1-52-52.3c-6.3-24.2,0.8-50.1,19.6-71.1
			c10.5-11.7,22.1-21.2,32.4-29.6c5.6-4.6,10.8-8.9,15.5-13.1c20.3-18.7,42.7-28.1,66.7-28.1c13,0,26.5,2.9,40,8.5
			c6,2.5,17,3.3,27.6,4.1c2.4,0.2,4.8,0.4,7.2,0.6l0.2,0c32,2.8,59,17.2,80.3,42.8l27.7,33.2l-32.1,29
			c-39.4,35.6-94.1,77.3-167.4,84.1l-0.5,0C355.4,916.3,351,916.5,346.6,916.5z"/>
		<path class="st0" d="M143.9,554.5c-0.3,0-0.6,0-0.9,0c-27.3-0.4-52.9-11.7-72.1-31.6c-19.1-19.8-29.3-45.5-28.8-72.5
			c0.3-27.2,11.2-52.7,30.5-71.8c19.4-19.2,45-29.7,72.3-29.7c0.4,0,0.7,0,1.1,0c27.5,0.3,53.2,11.3,72.4,30.9s29.6,45.6,29.3,73
			l-0.5,44.5H237c-5,10.1-11.7,19.3-19.9,27.4c-19.4,19.2-45,29.7-72.2,29.7c0,0,0,0,0,0C144.6,554.5,144.2,554.5,143.9,554.5z"/>
	</g>
	<g>
		<path class="st1" d="M560.3,540.9c17.8,15,36.4,29,53.2,44.9c43.5,41.4,73.2,91.6,89.6,149.3c4.5,15.7,13.9,24.3,28.4,27.1
			c18.6,3.6,37.4,6,56.3,7c42.9,2.2,86.1,1,128.2,10.9c12.2,2.8,24,7,35.3,12.5c8.3,4.2,15.7,10,21.6,17.2
			c18.5,22.2,12.4,50.4-14.4,60.7c-16.7,6.4-34.2,10.3-52.1,11.3c-76,4-152.1,5.4-226.2-15.7c-23.1-6.6-45.4-17.3-66.6-29
			c-12.2-6.9-22.5-16.6-30.1-28.4c-28.6-45.4-70.7-67.3-121.8-75.7c-29-4.8-58.3-8.2-86.6-15.4c-47.2-11.9-88.9-34.2-119.2-73.8
			c-33.4-43.8-36.8-96.9-8.4-138.1c22-31.9,54.1-48.3,91-56.1c48.8-10.4,96.9-4.2,144.7,7c87.8,20.7,169.5,56.9,248.7,99.2
			c2.5,1.3,5,2.8,7.6,4.1c16,8.5,28.1,6.2,35-6.7c8-14.9,4.3-28.7-10.9-37.2C673.1,465.1,579.2,422.4,480,391
			c-51.8-16.4-103.5-33.9-153.6-54.7c-56-23.3-98-63.8-126.5-117.8c-7.4-14.1-3.5-23.1,12.3-22.6c18.9,0.7,37.8,3.1,56.2,7.2
			c112,24.1,217.6,66.2,320.2,116.3C696.2,372,798.8,432.4,891.8,508.2c26.4,21.5,52,43.9,70.5,73.2c15.4,24.5,27.2,50.4,30.2,79.6
			c4.3,41.4-16.9,71.9-58,77.8c-66,9.4-122.5-9-165.2-62.7c-2.2-2.8-7.5-4.2-11.4-4.3c-5.6-0.2-11.3,1.3-17,2
			c-16.9,2.1-28.2-5-37.2-19.5c-33.5-53.5-81.6-89.3-139.7-112.5C562.8,541.3,561.6,541.1,560.3,540.9z M867.2,578.4
			c-13.6,0-21.5,5.3-26.4,15c-5.8,11.6-5.5,23.2,3.2,33.1c16.2,18.5,36.5,30.9,60.7,35.9c15.9,3.3,23-4.1,18.5-19.5
			c-7.2-24.4-21-44.5-42.4-58.6C876,581.2,870.3,579.7,867.2,578.4L867.2,578.4z"/>
		<path class="st1" d="M497.6,798.4c-41.3,37.3-85.3,67.5-141.4,72.7c-16,1.3-32-0.7-47.2-5.8c-25.4-8.7-31.1-30.8-13.2-50.7
			c13.2-14.8,30.1-26.2,44.8-39.7c17.5-16.1,35.5-21,59-11.2c14.7,6.2,32.1,6.6,48.4,8C468,773.4,483.9,781.9,497.6,798.4z"/>
		<path class="st1" d="M202.6,452.4c-0.3,31.9-26.4,57.5-58.3,57.1c-0.2,0-0.4,0-0.6,0c-31.4-0.5-57.4-27.2-56.7-58.4
			c0.3-31.9,26.5-57.5,58.4-57.2C177.4,394.3,203,420.4,202.6,452.4L202.6,452.4L202.6,452.4z"/>
		<path class="st1" d="M560.3,540.9c17.8,15,36.4,29,53.2,44.9c43.5,41.4,73.2,91.6,89.6,149.3c4.5,15.7,13.9,24.3,28.4,27.1
			c18.6,3.6,37.4,6,56.3,7c42.9,2.2,86.1,1,128.2,10.9c12.2,2.8,24,7,35.3,12.5c8.3,4.2,15.7,10,21.6,17.2
			c18.5,22.2,12.4,50.4-14.4,60.7c-16.7,6.4-34.2,10.3-52.1,11.3c-76,4-152.1,5.4-226.2-15.7c-23.1-6.6-45.4-17.3-66.6-29
			c-12.2-6.9-22.5-16.6-30.1-28.4c-28.6-45.4-70.7-67.3-121.8-75.7c-29-4.8-58.3-8.2-86.6-15.4c-47.2-11.9-88.9-34.2-119.2-73.8
			c-33.4-43.8-36.8-96.9-8.4-138.1c22-31.9,54.1-48.3,91-56.1c48.8-10.4,96.9-4.2,144.7,7c87.8,20.7,169.5,56.9,248.7,99.2
			c2.5,1.3,5,2.8,7.6,4.1c16,8.5,28.1,6.2,35-6.7c8-14.9,4.3-28.7-10.9-37.2C673.1,465.1,579.2,422.4,480,391
			c-51.8-16.4-103.5-33.9-153.6-54.7c-56-23.3-98-63.8-126.5-117.8c-7.4-14.1-3.5-23.1,12.3-22.6c18.9,0.7,37.8,3.1,56.2,7.2
			c112,24.1,217.6,66.2,320.2,116.3C696.2,372,798.8,432.4,891.8,508.2c26.4,21.5,52,43.9,70.5,73.2c15.4,24.5,27.2,50.4,30.2,79.6
			c4.3,41.4-16.9,71.9-58,77.8c-66,9.4-122.5-9-165.2-62.7c-2.2-2.8-7.5-4.2-11.4-4.3c-5.6-0.2-11.3,1.3-17,2
			c-16.9,2.1-28.2-5-37.2-19.5c-33.5-53.5-81.6-89.3-139.7-112.5C562.8,541.3,561.6,541.1,560.3,540.9z M867.2,578.4
			c-13.6,0-21.5,5.3-26.4,15c-5.8,11.6-5.5,23.2,3.2,33.1c16.2,18.5,36.5,30.9,60.7,35.9c15.9,3.3,23-4.1,18.5-19.5
			c-7.2-24.4-21-44.5-42.4-58.6C876,581.2,870.3,579.7,867.2,578.4L867.2,578.4z"/>
		<path class="st1" d="M497.6,798.4c-41.3,37.3-85.3,67.5-141.4,72.7c-16,1.3-32-0.7-47.2-5.8c-25.4-8.7-31.1-30.8-13.2-50.7
			c13.2-14.8,30.1-26.2,44.8-39.7c17.5-16.1,35.5-21,59-11.2c14.7,6.2,32.1,6.6,48.4,8C468,773.4,483.9,781.9,497.6,798.4z"/>
		<path class="st1" d="M202.6,452.4c-0.3,31.9-26.4,57.5-58.3,57.1c-0.2,0-0.4,0-0.6,0c-31.4-0.5-57.4-27.2-56.7-58.4
			c0.3-31.9,26.5-57.5,58.4-57.2C177.4,394.3,203,420.4,202.6,452.4L202.6,452.4L202.6,452.4z"/>
	</g>
</g>
</svg>
