<svg id="Layer_1" data-name="Layer 1" xmlns="http://www.w3.org/2000/svg" viewBox="0 0 1080 1080"><defs><style>.cls-1{fill:#1c1c1e;}.cls-2,.cls-5{font-size:230.13px;font-family:ProtestStrike-Regular, Protest Strike;}.cls-3{letter-spacing:-0.01em;}.cls-4{letter-spacing:-0.02em;}.cls-5{fill:#ed2a28;}.cls-6{fill:#fff;}.cls-7{fill:none;stroke:#fff;stroke-miterlimit:10;stroke-width:4.79px;}</style></defs><path class="cls-1" d="M41.54,908.51V742.13L9.75,663H134.17c18.58,0,34.29,2.55,48.06,7.8a78.25,78.25,0,0,1,41,35c8,14.28,11.91,31.48,11.91,52.59,0,17.82-3,32.79-9.14,45.76a83.29,83.29,0,0,1-4.94,9l42,95.45Z"/><path class="cls-1" d="M277.08,910.81c-21.08,0-40.08-4.27-56.47-12.71-18.69-9.61-33.06-24.84-42.7-45.27-8.45-17.9-12.56-39.47-12.56-66,0-27,4.46-49,13.65-67.34,10.14-20.27,24.92-35.51,43.93-45.28,17-8.73,36.47-13.15,57.83-13.15a149.41,149.41,0,0,1,23,1.86c6.32,1,12.9,2.18,19.56,3.51l35.86,7.17-8,73.07H363v135.6l-18,11.83c-9,5.92-19.58,10.19-32.23,13A163.83,163.83,0,0,1,277.08,910.81Z"/><path class="cls-1" d="M299.28,908.51V742.13L267.49,663H395.6c28.48,0,51,7.11,66.91,21.14,17.13,15.12,26.18,35.86,26.18,60a92.92,92.92,0,0,1-5.85,33.06c8.31,13,12.53,28.84,12.53,47,0,26.83-11.34,49.94-31.93,65.08-17.63,13-40.95,19.27-71.29,19.27Z"/><path class="cls-1" d="M523.09,910.81c-30.17,0-54.11-8.93-71.16-26.54-16.69-17.24-25.16-42.19-25.16-74.15V663H619.41V810.12c0,31.89-8.39,56.8-24.94,74C577.49,901.84,553.47,910.81,523.09,910.81Z"/><polygon class="cls-1" points="555.88 908.51 555.88 734.24 527.49 662.95 762.77 662.95 762.77 908.51 555.88 908.51"/><polygon class="cls-1" points="702.69 908.51 702.69 734.24 674.31 662.95 909.6 662.95 909.6 908.51 702.69 908.51"/><polygon class="cls-1" points="883.11 908.51 883.11 824.99 824.13 662.95 1067.18 662.95 1007.86 825.02 1007.86 908.51 883.11 908.51"/><path class="cls-1" d="M41.54,908.51V742.13L9.75,663H134.17c18.58,0,34.29,2.55,48.06,7.8a78.25,78.25,0,0,1,41,35c8,14.28,11.91,31.48,11.91,52.59,0,17.82-3,32.79-9.14,45.76a83.29,83.29,0,0,1-4.94,9l42,95.45Z"/><path class="cls-1" d="M277.08,910.81c-21.08,0-40.08-4.27-56.47-12.71-18.69-9.61-33.06-24.84-42.7-45.27-8.45-17.9-12.56-39.47-12.56-66,0-27,4.46-49,13.65-67.34,10.14-20.27,24.92-35.51,43.93-45.28,17-8.73,36.47-13.15,57.83-13.15a149.41,149.41,0,0,1,23,1.86c6.32,1,12.9,2.18,19.56,3.51l35.86,7.17-8,73.07H363v135.6l-18,11.83c-9,5.92-19.58,10.19-32.23,13A163.83,163.83,0,0,1,277.08,910.81Z"/><path class="cls-1" d="M299.28,908.51V742.13L267.49,663H395.6c28.48,0,51,7.11,66.91,21.14,17.13,15.12,26.18,35.86,26.18,60a92.92,92.92,0,0,1-5.85,33.06c8.31,13,12.53,28.84,12.53,47,0,26.83-11.34,49.94-31.93,65.08-17.63,13-40.95,19.27-71.29,19.27Z"/><path class="cls-1" d="M523.09,910.81c-30.17,0-54.11-8.93-71.16-26.54-16.69-17.24-25.16-42.19-25.16-74.15V663H619.41V810.12c0,31.89-8.39,56.8-24.94,74C577.49,901.84,553.47,910.81,523.09,910.81Z"/><polygon class="cls-1" points="555.88 908.51 555.88 734.24 527.49 662.95 762.77 662.95 762.77 908.51 555.88 908.51"/><polygon class="cls-1" points="702.69 908.51 702.69 734.24 674.31 662.95 909.6 662.95 909.6 908.51 702.69 908.51"/><polygon class="cls-1" points="883.11 908.51 883.11 824.99 824.13 662.95 1067.18 662.95 1007.86 825.02 1007.86 908.51 883.11 908.51"/><path class="cls-1" d="M41.54,908.51V742.13L9.75,663H134.17c18.58,0,34.29,2.55,48.06,7.8a78.25,78.25,0,0,1,41,35c8,14.28,11.91,31.48,11.91,52.59,0,17.82-3,32.79-9.14,45.76a83.29,83.29,0,0,1-4.94,9l42,95.45Z"/><path class="cls-1" d="M277.08,910.81c-21.08,0-40.08-4.27-56.47-12.71-18.69-9.61-33.06-24.84-42.7-45.27-8.45-17.9-12.56-39.47-12.56-66,0-27,4.46-49,13.65-67.34,10.14-20.27,24.92-35.51,43.93-45.28,17-8.73,36.47-13.15,57.83-13.15a149.41,149.41,0,0,1,23,1.86c6.32,1,12.9,2.18,19.56,3.51l35.86,7.17-8,73.07H363v135.6l-18,11.83c-9,5.92-19.58,10.19-32.23,13A163.83,163.83,0,0,1,277.08,910.81Z"/><path class="cls-1" d="M299.28,908.51V742.13L267.49,663H395.6c28.48,0,51,7.11,66.91,21.14,17.13,15.12,26.18,35.86,26.18,60a92.92,92.92,0,0,1-5.85,33.06c8.31,13,12.53,28.84,12.53,47,0,26.83-11.34,49.94-31.93,65.08-17.63,13-40.95,19.27-71.29,19.27Z"/><path class="cls-1" d="M523.09,910.81c-30.17,0-54.11-8.93-71.16-26.54-16.69-17.24-25.16-42.19-25.16-74.15V663H619.41V810.12c0,31.89-8.39,56.8-24.94,74C577.49,901.84,553.47,910.81,523.09,910.81Z"/><polygon class="cls-1" points="555.88 908.51 555.88 734.24 527.49 662.95 762.77 662.95 762.77 908.51 555.88 908.51"/><polygon class="cls-1" points="702.69 908.51 702.69 734.24 674.31 662.95 909.6 662.95 909.6 908.51 702.69 908.51"/><polygon class="cls-1" points="883.11 908.51 883.11 824.99 824.13 662.95 1067.18 662.95 1007.86 825.02 1007.86 908.51 883.11 908.51"/><path class="cls-1" d="M697.45,715.57c-47.45,0-86.26-4.76-122.14-15-17.69-5-35.49-12.71-57.71-24.88a104.44,104.44,0,0,1-37-34.84c-13.47-21.39-33-33.14-63.21-38.12-5.35-.88-10.69-1.7-16.34-2.56-16.64-2.53-33.85-5.16-51.3-9.56-47.3-11.94-84.48-35.26-110.51-69.33-35.26-46.15-38.18-104.84-7.43-149.51,20.58-29.9,51.59-49.45,92.16-58.11l2.61-.54c-6.19-2.42-12.41-4.92-18.6-7.5-49.47-20.56-87.81-56.13-113.95-105.73-13.47-25.54-4.88-44.94-.56-52.1,8.92-14.79,25-23.27,44.09-23.27.72,0,1.45,0,2.2,0a276.15,276.15,0,0,1,48.91,6.25c77.45,16.66,155.93,45.11,247,89.56C627.77,265.31,704,312.76,768.59,365.45c20.5,16.71,43.81,36.83,60.94,64.12,16.68,26.57,25.68,50.79,28.33,76.22,2.64,25.27-3,48.27-16.36,66.51a83.37,83.37,0,0,1-14.16,15.06,88.39,88.39,0,0,1,7,7.42c15.17,18.14,20.68,40.8,15.13,62.17-5.45,20.93-20.82,37.62-42.18,45.8a169,169,0,0,1-50.89,11C740.17,714.6,718.83,715.57,697.45,715.57Z"/><path class="cls-1" d="M338.34,706.29a128.3,128.3,0,0,1-40.85-6.75c-21.91-7.45-37.49-23.26-42.75-43.37s.58-41.55,16.05-58.8c8.12-9.06,16.95-16.29,24.74-22.67,4.06-3.33,7.9-6.48,11.22-9.53,16.32-15,34.48-22.65,54-22.65A83.38,83.38,0,0,1,393,549.37c3.42,1.42,11.67,2.06,18.31,2.57,1.89.15,3.77.29,5.63.45,25.6,2.2,47.2,13.66,64.2,34.06l24.56,29.48-28.47,25.72c-30,27.12-71.72,58.92-128.13,64.15C345.6,706.13,342,706.29,338.34,706.29Z"/><path class="cls-1" d="M188.36,437.33h-1.42a82.86,82.86,0,0,1,1.55-165.71l1.6,0a82.86,82.86,0,0,1-1.73,165.7Z"/><path class="cls-1" d="M697.45,715.57c-47.45,0-86.26-4.76-122.14-15-17.69-5-35.49-12.71-57.71-24.88a104.44,104.44,0,0,1-37-34.84c-13.47-21.39-33-33.14-63.21-38.12-5.35-.88-10.69-1.7-16.34-2.56-16.64-2.53-33.85-5.16-51.3-9.56-47.3-11.94-84.48-35.26-110.51-69.33-35.26-46.15-38.18-104.84-7.43-149.51,20.58-29.9,51.59-49.45,92.16-58.11l2.61-.54c-6.19-2.42-12.41-4.92-18.6-7.5-49.47-20.56-87.81-56.13-113.95-105.73-13.47-25.54-4.88-44.94-.56-52.1,8.92-14.79,25-23.27,44.09-23.27.72,0,1.45,0,2.2,0a276.15,276.15,0,0,1,48.91,6.25c77.45,16.66,155.93,45.11,247,89.56C627.77,265.31,704,312.76,768.59,365.45c20.5,16.71,43.81,36.83,60.94,64.12,16.68,26.57,25.68,50.79,28.33,76.22,2.64,25.27-3,48.27-16.36,66.51a83.37,83.37,0,0,1-14.16,15.06,88.39,88.39,0,0,1,7,7.42c15.17,18.14,20.68,40.8,15.13,62.17-5.45,20.93-20.82,37.62-42.18,45.8a169,169,0,0,1-50.89,11C740.17,714.6,718.83,715.57,697.45,715.57Z"/><path class="cls-1" d="M338.34,706.29a128.3,128.3,0,0,1-40.85-6.75c-21.91-7.45-37.49-23.26-42.75-43.37s.58-41.55,16.05-58.8c8.12-9.06,16.95-16.29,24.74-22.67,4.06-3.33,7.9-6.48,11.22-9.53,16.32-15,34.48-22.65,54-22.65A83.38,83.38,0,0,1,393,549.37c3.42,1.42,11.67,2.06,18.31,2.57,1.89.15,3.77.29,5.63.45,25.6,2.2,47.2,13.66,64.2,34.06l24.56,29.48-28.47,25.72c-30,27.12-71.72,58.92-128.13,64.15C345.6,706.13,342,706.29,338.34,706.29Z"/><path class="cls-1" d="M188.36,437.33h-1.42a82.86,82.86,0,0,1,1.55-165.71l1.6,0a82.86,82.86,0,0,1-1.73,165.7Z"/><path class="cls-1" d="M697.45,715.57c-47.45,0-86.26-4.76-122.14-15-17.69-5-35.49-12.71-57.71-24.88a104.44,104.44,0,0,1-37-34.84c-13.47-21.39-33-33.14-63.21-38.12-5.35-.88-10.69-1.7-16.34-2.56-16.64-2.53-33.85-5.16-51.3-9.56-47.3-11.94-84.48-35.26-110.51-69.33-35.26-46.15-38.18-104.84-7.43-149.51,20.58-29.9,51.59-49.45,92.16-58.11l2.61-.54c-6.19-2.42-12.41-4.92-18.6-7.5-49.47-20.56-87.81-56.13-113.95-105.73-13.47-25.54-4.88-44.94-.56-52.1,8.92-14.79,25-23.27,44.09-23.27.72,0,1.45,0,2.2,0a276.15,276.15,0,0,1,48.91,6.25c77.45,16.66,155.93,45.11,247,89.56C627.77,265.31,704,312.76,768.59,365.45c20.5,16.71,43.81,36.83,60.94,64.12,16.68,26.57,25.68,50.79,28.33,76.22,2.64,25.27-3,48.27-16.36,66.51a83.37,83.37,0,0,1-14.16,15.06,88.39,88.39,0,0,1,7,7.42c15.17,18.14,20.68,40.8,15.13,62.17-5.45,20.93-20.82,37.62-42.18,45.8a169,169,0,0,1-50.89,11C740.17,714.6,718.83,715.57,697.45,715.57Z"/><path class="cls-1" d="M338.34,706.29a128.3,128.3,0,0,1-40.85-6.75c-21.91-7.45-37.49-23.26-42.75-43.37s.58-41.55,16.05-58.8c8.12-9.06,16.95-16.29,24.74-22.67,4.06-3.33,7.9-6.48,11.22-9.53,16.32-15,34.48-22.65,54-22.65A83.38,83.38,0,0,1,393,549.37c3.42,1.42,11.67,2.06,18.31,2.57,1.89.15,3.77.29,5.63.45,25.6,2.2,47.2,13.66,64.2,34.06l24.56,29.48-28.47,25.72c-30,27.12-71.72,58.92-128.13,64.15C345.6,706.13,342,706.29,338.34,706.29Z"/><path class="cls-1" d="M188.36,437.33h-1.42a82.86,82.86,0,0,1,1.55-165.71l1.6,0a82.86,82.86,0,0,1-1.73,165.7Z"/><path class="cls-1" d="M812.6,695.13V631l-22.14-55.15h74.62a62.49,62.49,0,0,1,22.29,3.85,48.7,48.7,0,0,1,25.42,21.85A55.25,55.25,0,0,1,919.54,629a60.42,60.42,0,0,1-1.11,11.71l24,54.46Z"/><circle class="cls-1" cx="865.49" cy="635.63" r="70.66"/><path class="cls-1" d="M697.45,715.57c-47.45,0-86.26-4.76-122.14-15-17.69-5-35.49-12.71-57.71-24.88a104.44,104.44,0,0,1-37-34.84c-13.47-21.39-33-33.14-63.21-38.12-5.35-.88-10.69-1.7-16.34-2.56-16.64-2.53-33.85-5.16-51.3-9.56-47.3-11.94-84.48-35.26-110.51-69.33-35.26-46.15-38.18-104.84-7.43-149.51,20.58-29.9,51.59-49.45,92.16-58.11l2.61-.54c-6.19-2.42-12.41-4.92-18.6-7.5-49.47-20.56-87.81-56.13-113.95-105.73-13.47-25.54-4.88-44.94-.56-52.1,8.92-14.79,25-23.27,44.09-23.27.72,0,1.45,0,2.2,0a276.15,276.15,0,0,1,48.91,6.25c77.45,16.66,155.93,45.11,247,89.56C627.77,265.31,704,312.76,768.59,365.45c20.5,16.71,43.81,36.83,60.94,64.12,16.68,26.57,25.68,50.79,28.33,76.22,2.64,25.27-3,48.27-16.36,66.51a83.37,83.37,0,0,1-14.16,15.06,88.39,88.39,0,0,1,7,7.42c15.17,18.14,20.68,40.8,15.13,62.17-5.45,20.93-20.82,37.62-42.18,45.8a169,169,0,0,1-50.89,11C740.17,714.6,718.83,715.57,697.45,715.57Z"/><path class="cls-1" d="M338.34,706.29a128.3,128.3,0,0,1-40.85-6.75c-21.91-7.45-37.49-23.26-42.75-43.37s.58-41.55,16.05-58.8c8.12-9.06,16.95-16.29,24.74-22.67,4.06-3.33,7.9-6.48,11.22-9.53,16.32-15,34.48-22.65,54-22.65A83.38,83.38,0,0,1,393,549.37c3.42,1.42,11.67,2.06,18.31,2.57,1.89.15,3.77.29,5.63.45,25.6,2.2,47.2,13.66,64.2,34.06l24.56,29.48-28.47,25.72c-30,27.12-71.72,58.92-128.13,64.15C345.6,706.13,342,706.29,338.34,706.29Z"/><path class="cls-1" d="M188.36,437.33h-1.42a82.86,82.86,0,0,1,1.55-165.71l1.6,0a82.86,82.86,0,0,1-1.73,165.7Z"/><path class="cls-1" d="M697.45,715.57c-47.45,0-86.26-4.76-122.14-15-17.69-5-35.49-12.71-57.71-24.88a104.44,104.44,0,0,1-37-34.84c-13.47-21.39-33-33.14-63.21-38.12-5.35-.88-10.69-1.7-16.34-2.56-16.64-2.53-33.85-5.16-51.3-9.56-47.3-11.94-84.48-35.26-110.51-69.33-35.26-46.15-38.18-104.84-7.43-149.51,20.58-29.9,51.59-49.45,92.16-58.11l2.61-.54c-6.19-2.42-12.41-4.92-18.6-7.5-49.47-20.56-87.81-56.13-113.95-105.73-13.47-25.54-4.88-44.94-.56-52.1,8.92-14.79,25-23.27,44.09-23.27.72,0,1.45,0,2.2,0a276.15,276.15,0,0,1,48.91,6.25c77.45,16.66,155.93,45.11,247,89.56C627.77,265.31,704,312.76,768.59,365.45c20.5,16.71,43.81,36.83,60.94,64.12,16.68,26.57,25.68,50.79,28.33,76.22,2.64,25.27-3,48.27-16.36,66.51a83.37,83.37,0,0,1-14.16,15.06,88.39,88.39,0,0,1,7,7.42c15.17,18.14,20.68,40.8,15.13,62.17-5.45,20.93-20.82,37.62-42.18,45.8a169,169,0,0,1-50.89,11C740.17,714.6,718.83,715.57,697.45,715.57Z"/><path class="cls-1" d="M338.34,706.29a128.3,128.3,0,0,1-40.85-6.75c-21.91-7.45-37.49-23.26-42.75-43.37s.58-41.55,16.05-58.8c8.12-9.06,16.95-16.29,24.74-22.67,4.06-3.33,7.9-6.48,11.22-9.53,16.32-15,34.48-22.65,54-22.65A83.38,83.38,0,0,1,393,549.37c3.42,1.42,11.67,2.06,18.31,2.57,1.89.15,3.77.29,5.63.45,25.6,2.2,47.2,13.66,64.2,34.06l24.56,29.48-28.47,25.72c-30,27.12-71.72,58.92-128.13,64.15C345.6,706.13,342,706.29,338.34,706.29Z"/><path class="cls-1" d="M188.36,437.33h-1.42a82.86,82.86,0,0,1,1.55-165.71l1.6,0a82.86,82.86,0,0,1-1.73,165.7Z"/><path class="cls-1" d="M697.45,715.57c-47.45,0-86.26-4.76-122.14-15-17.69-5-35.49-12.71-57.71-24.88a104.44,104.44,0,0,1-37-34.84c-13.47-21.39-33-33.14-63.21-38.12-5.35-.88-10.69-1.7-16.34-2.56-16.64-2.53-33.85-5.16-51.3-9.56-47.3-11.94-84.48-35.26-110.51-69.33-35.26-46.15-38.18-104.84-7.43-149.51,20.58-29.9,51.59-49.45,92.16-58.11l2.61-.54c-6.19-2.42-12.41-4.92-18.6-7.5-49.47-20.56-87.81-56.13-113.95-105.73-13.47-25.54-4.88-44.94-.56-52.1,8.92-14.79,25-23.27,44.09-23.27.72,0,1.45,0,2.2,0a276.15,276.15,0,0,1,48.91,6.25c77.45,16.66,155.93,45.11,247,89.56C627.77,265.31,704,312.76,768.59,365.45c20.5,16.71,43.81,36.83,60.94,64.12,16.68,26.57,25.68,50.79,28.33,76.22,2.64,25.27-3,48.27-16.36,66.51a83.37,83.37,0,0,1-14.16,15.06,88.39,88.39,0,0,1,7,7.42c15.17,18.14,20.68,40.8,15.13,62.17-5.45,20.93-20.82,37.62-42.18,45.8a169,169,0,0,1-50.89,11C740.17,714.6,718.83,715.57,697.45,715.57Z"/><path class="cls-1" d="M338.34,706.29a128.3,128.3,0,0,1-40.85-6.75c-21.91-7.45-37.49-23.26-42.75-43.37s.58-41.55,16.05-58.8c8.12-9.06,16.95-16.29,24.74-22.67,4.06-3.33,7.9-6.48,11.22-9.53,16.32-15,34.48-22.65,54-22.65A83.38,83.38,0,0,1,393,549.37c3.42,1.42,11.67,2.06,18.31,2.57,1.89.15,3.77.29,5.63.45,25.6,2.2,47.2,13.66,64.2,34.06l24.56,29.48-28.47,25.72c-30,27.12-71.72,58.92-128.13,64.15C345.6,706.13,342,706.29,338.34,706.29Z"/><path class="cls-1" d="M188.36,437.33h-1.42a82.86,82.86,0,0,1,1.55-165.71l1.6,0a82.86,82.86,0,0,1-1.73,165.7Z"/><path class="cls-1" d="M812.6,695.13V631l-22.14-55.15h74.62a62.49,62.49,0,0,1,22.29,3.85,48.7,48.7,0,0,1,25.42,21.85A55.25,55.25,0,0,1,919.54,629a60.42,60.42,0,0,1-1.11,11.71l24,54.46Z"/><circle class="cls-1" cx="865.49" cy="635.63" r="70.66"/><path class="cls-1" d="M697.45,715.57c-47.45,0-86.26-4.76-122.14-15-17.69-5-35.49-12.71-57.71-24.88a104.44,104.44,0,0,1-37-34.84c-13.47-21.39-33-33.14-63.21-38.12-5.35-.88-10.69-1.7-16.34-2.56-16.64-2.53-33.85-5.16-51.3-9.56-47.3-11.94-84.48-35.26-110.51-69.33-35.26-46.15-38.18-104.84-7.43-149.51,20.58-29.9,51.59-49.45,92.16-58.11l2.61-.54c-6.19-2.42-12.41-4.92-18.6-7.5-49.47-20.56-87.81-56.13-113.95-105.73-13.47-25.54-4.88-44.94-.56-52.1,8.92-14.79,25-23.27,44.09-23.27.72,0,1.45,0,2.2,0a276.15,276.15,0,0,1,48.91,6.25c77.45,16.66,155.93,45.11,247,89.56C627.77,265.31,704,312.76,768.59,365.45c20.5,16.71,43.81,36.83,60.94,64.12,16.68,26.57,25.68,50.79,28.33,76.22,2.64,25.27-3,48.27-16.36,66.51a83.37,83.37,0,0,1-14.16,15.06,88.39,88.39,0,0,1,7,7.42c15.17,18.14,20.68,40.8,15.13,62.17-5.45,20.93-20.82,37.62-42.18,45.8a169,169,0,0,1-50.89,11C740.17,714.6,718.83,715.57,697.45,715.57Z"/><path class="cls-1" d="M338.34,706.29a128.3,128.3,0,0,1-40.85-6.75c-21.91-7.45-37.49-23.26-42.75-43.37s.58-41.55,16.05-58.8c8.12-9.06,16.95-16.29,24.74-22.67,4.06-3.33,7.9-6.48,11.22-9.53,16.32-15,34.48-22.65,54-22.65A83.38,83.38,0,0,1,393,549.37c3.42,1.42,11.67,2.06,18.31,2.57,1.89.15,3.77.29,5.63.45,25.6,2.2,47.2,13.66,64.2,34.06l24.56,29.48-28.47,25.72c-30,27.12-71.72,58.92-128.13,64.15C345.6,706.13,342,706.29,338.34,706.29Z"/><path class="cls-1" d="M188.36,437.33h-1.42a82.86,82.86,0,0,1,1.55-165.71l1.6,0a82.86,82.86,0,0,1-1.73,165.7Z"/><path class="cls-1" d="M697.45,715.57c-47.45,0-86.26-4.76-122.14-15-17.69-5-35.49-12.71-57.71-24.88a104.44,104.44,0,0,1-37-34.84c-13.47-21.39-33-33.14-63.21-38.12-5.35-.88-10.69-1.7-16.34-2.56-16.64-2.53-33.85-5.16-51.3-9.56-47.3-11.94-84.48-35.26-110.51-69.33-35.26-46.15-38.18-104.84-7.43-149.51,20.58-29.9,51.59-49.45,92.16-58.11l2.61-.54c-6.19-2.42-12.41-4.92-18.6-7.5-49.47-20.56-87.81-56.13-113.95-105.73-13.47-25.54-4.88-44.94-.56-52.1,8.92-14.79,25-23.27,44.09-23.27.72,0,1.45,0,2.2,0a276.15,276.15,0,0,1,48.91,6.25c77.45,16.66,155.93,45.11,247,89.56C627.77,265.31,704,312.76,768.59,365.45c20.5,16.71,43.81,36.83,60.94,64.12,16.68,26.57,25.68,50.79,28.33,76.22,2.64,25.27-3,48.27-16.36,66.51a83.37,83.37,0,0,1-14.16,15.06,88.39,88.39,0,0,1,7,7.42c15.17,18.14,20.68,40.8,15.13,62.17-5.45,20.93-20.82,37.62-42.18,45.8a169,169,0,0,1-50.89,11C740.17,714.6,718.83,715.57,697.45,715.57Z"/><path class="cls-1" d="M338.34,706.29a128.3,128.3,0,0,1-40.85-6.75c-21.91-7.45-37.49-23.26-42.75-43.37s.58-41.55,16.05-58.8c8.12-9.06,16.95-16.29,24.74-22.67,4.06-3.33,7.9-6.48,11.22-9.53,16.32-15,34.48-22.65,54-22.65A83.38,83.38,0,0,1,393,549.37c3.42,1.42,11.67,2.06,18.31,2.57,1.89.15,3.77.29,5.63.45,25.6,2.2,47.2,13.66,64.2,34.06l24.56,29.48-28.47,25.72c-30,27.12-71.72,58.92-128.13,64.15C345.6,706.13,342,706.29,338.34,706.29Z"/><path class="cls-1" d="M188.36,437.33h-1.42a82.86,82.86,0,0,1,1.55-165.71l1.6,0a82.86,82.86,0,0,1-1.73,165.7Z"/><path class="cls-1" d="M697.45,715.57c-47.45,0-86.26-4.76-122.14-15-17.69-5-35.49-12.71-57.71-24.88a104.44,104.44,0,0,1-37-34.84c-13.47-21.39-33-33.14-63.21-38.12-5.35-.88-10.69-1.7-16.34-2.56-16.64-2.53-33.85-5.16-51.3-9.56-47.3-11.94-84.48-35.26-110.51-69.33-35.26-46.15-38.18-104.84-7.43-149.51,20.58-29.9,51.59-49.45,92.16-58.11l2.61-.54c-6.19-2.42-12.41-4.92-18.6-7.5-49.47-20.56-87.81-56.13-113.95-105.73-13.47-25.54-4.88-44.94-.56-52.1,8.92-14.79,25-23.27,44.09-23.27.72,0,1.45,0,2.2,0a276.15,276.15,0,0,1,48.91,6.25c77.45,16.66,155.93,45.11,247,89.56C627.77,265.31,704,312.76,768.59,365.45c20.5,16.71,43.81,36.83,60.94,64.12,16.68,26.57,25.68,50.79,28.33,76.22,2.64,25.27-3,48.27-16.36,66.51a83.37,83.37,0,0,1-14.16,15.06,88.39,88.39,0,0,1,7,7.42c15.17,18.14,20.68,40.8,15.13,62.17-5.45,20.93-20.82,37.62-42.18,45.8a169,169,0,0,1-50.89,11C740.17,714.6,718.83,715.57,697.45,715.57Z"/><path class="cls-1" d="M338.34,706.29a128.3,128.3,0,0,1-40.85-6.75c-21.91-7.45-37.49-23.26-42.75-43.37s.58-41.55,16.05-58.8c8.12-9.06,16.95-16.29,24.74-22.67,4.06-3.33,7.9-6.48,11.22-9.53,16.32-15,34.48-22.65,54-22.65A83.38,83.38,0,0,1,393,549.37c3.42,1.42,11.67,2.06,18.31,2.57,1.89.15,3.77.29,5.63.45,25.6,2.2,47.2,13.66,64.2,34.06l24.56,29.48-28.47,25.72c-30,27.12-71.72,58.92-128.13,64.15C345.6,706.13,342,706.29,338.34,706.29Z"/><path class="cls-1" d="M188.36,437.33h-1.42a82.86,82.86,0,0,1,1.55-165.71l1.6,0a82.86,82.86,0,0,1-1.73,165.7Z"/><path class="cls-1" d="M812.6,695.13V631l-22.14-55.15h74.62a62.49,62.49,0,0,1,22.29,3.85,48.7,48.7,0,0,1,25.42,21.85A55.25,55.25,0,0,1,919.54,629a60.42,60.42,0,0,1-1.11,11.71l24,54.46Z"/><circle class="cls-1" cx="865.49" cy="635.63" r="70.66"/><text class="cls-2" transform="translate(68.81 868.58)"><tspan class="cls-3">R</tspan><tspan x="131.86" y="0">G</tspan><tspan class="cls-4" x="257.74" y="0">B</tspan><tspan class="cls-3" x="388.69" y="0">U</tspan><tspan x="517.56" y="0">NNY</tspan></text><text class="cls-5" transform="translate(68.81 868.58)"><tspan class="cls-3">R</tspan><tspan x="131.86" y="0">G</tspan><tspan class="cls-4" x="257.74" y="0">B</tspan><tspan class="cls-3" x="388.69" y="0">U</tspan><tspan x="517.56" y="0">NNY</tspan></text><path class="cls-6" d="M497.1,420.75c13.26,11.12,27.08,21.51,39.52,33.34C569,484.84,591,522.15,603.17,565c3.32,11.68,10.35,18.09,21.11,20.14a310.22,310.22,0,0,0,41.84,5.23c31.87,1.61,64,.71,95.28,8.07a124.48,124.48,0,0,1,26.21,9.25,51,51,0,0,1,16.06,12.71c13.77,16.48,9.19,37.45-10.7,45.07a128.92,128.92,0,0,1-38.69,8.41c-56.43,3-113,4-168-11.69-17.18-4.89-33.74-12.89-49.47-21.5a63.78,63.78,0,0,1-22.38-21.09c-21.23-33.7-52.54-50-90.51-56.25-21.51-3.53-43.29-6.11-64.36-11.43-35-8.84-66-25.38-88.55-54.86-24.83-32.5-27.35-72-6.27-102.62,16.32-23.7,40.19-35.84,67.6-41.69,36.24-7.73,72-3.15,107.5,5.21,65.26,15.36,125.91,42.26,184.76,73.66,1.88,1,3.74,2.05,5.62,3.05,11.89,6.32,20.86,4.59,26-5,6-11.1,3.21-21.33-8.06-27.63-67.29-37.59-137.08-69.33-210.73-92.63-38.48-12.17-76.87-25.16-114.11-40.64-41.58-17.27-72.82-47.37-94-87.47-5.52-10.47-2.6-17.17,9.13-16.8a235.63,235.63,0,0,1,41.79,5.38c83.23,17.9,161.68,49.21,237.9,86.41,79.85,39,156.09,83.82,225.16,140.12C763,412.4,782,429,795.7,450.8c11.45,18.24,20.18,37.44,22.44,59.13,3.21,30.79-12.52,53.4-43.06,57.76-49,7-91-6.72-122.75-46.6-1.64-2.06-5.54-3.1-8.45-3.21-4.18-.17-8.41,1-12.63,1.51-12.57,1.58-20.92-3.73-27.64-14.47-24.86-39.76-60.62-66.36-103.77-83.6A15.07,15.07,0,0,0,497.1,420.75Zm227.95,27.82c-10.08,0-16,3.92-19.62,11.18-4.31,8.61-4.06,17.22,2.35,24.56,12,13.76,27.1,22.95,45.07,26.68,11.85,2.46,17.13-3.07,13.74-14.51-5.36-18.11-15.6-33-31.53-43.55C731.62,450.67,727.41,449.57,725.05,448.57Z"/><path class="cls-6" d="M450.47,612c-30.68,27.72-63.35,50.16-105,54a87.24,87.24,0,0,1-35.07-4.31c-18.89-6.42-23.13-22.87-9.83-37.69,9.83-11,22.37-19.45,33.28-29.5,13-12,26.36-15.63,43.8-8.33,10.92,4.56,23.82,4.93,35.93,6C428.52,593.47,440.29,599.8,450.47,612Z"/><path class="cls-6" d="M231.36,354.94a42.89,42.89,0,0,1-43.74,42.45C164.29,397,145,377.15,145.45,354a43,43,0,0,1,85.91.91Z"/><path class="cls-6" d="M497.1,420.75c13.26,11.12,27.08,21.51,39.52,33.34C569,484.84,591,522.15,603.17,565c3.32,11.68,10.35,18.09,21.11,20.14a310.22,310.22,0,0,0,41.84,5.23c31.87,1.61,64,.71,95.28,8.07a124.48,124.48,0,0,1,26.21,9.25,51,51,0,0,1,16.06,12.71c13.77,16.48,9.19,37.45-10.7,45.07a128.92,128.92,0,0,1-38.69,8.41c-56.43,3-113,4-168-11.69-17.18-4.89-33.74-12.89-49.47-21.5a63.78,63.78,0,0,1-22.38-21.09c-21.23-33.7-52.54-50-90.51-56.25-21.51-3.53-43.29-6.11-64.36-11.43-35-8.84-66-25.38-88.55-54.86-24.83-32.5-27.35-72-6.27-102.62,16.32-23.7,40.19-35.84,67.6-41.69,36.24-7.73,72-3.15,107.5,5.21,65.26,15.36,125.91,42.26,184.76,73.66,1.88,1,3.74,2.05,5.62,3.05,11.89,6.32,20.86,4.59,26-5,6-11.1,3.21-21.33-8.06-27.63-67.29-37.59-137.08-69.33-210.73-92.63-38.48-12.17-76.87-25.16-114.11-40.64-41.58-17.27-72.82-47.37-94-87.47-5.52-10.47-2.6-17.17,9.13-16.8a235.63,235.63,0,0,1,41.79,5.38c83.23,17.9,161.68,49.21,237.9,86.41,79.85,39,156.09,83.82,225.16,140.12C763,412.4,782,429,795.7,450.8c11.45,18.24,20.18,37.44,22.44,59.13,3.21,30.79-12.52,53.4-43.06,57.76-49,7-91-6.72-122.75-46.6-1.64-2.06-5.54-3.1-8.45-3.21-4.18-.17-8.41,1-12.63,1.51-12.57,1.58-20.92-3.73-27.64-14.47-24.86-39.76-60.62-66.36-103.77-83.6A15.07,15.07,0,0,0,497.1,420.75Zm227.95,27.82c-10.08,0-16,3.92-19.62,11.18-4.31,8.61-4.06,17.22,2.35,24.56,12,13.76,27.1,22.95,45.07,26.68,11.85,2.46,17.13-3.07,13.74-14.51-5.36-18.11-15.6-33-31.53-43.55C731.62,450.67,727.41,449.57,725.05,448.57Z"/><path class="cls-6" d="M450.47,612c-30.68,27.72-63.35,50.16-105,54a87.24,87.24,0,0,1-35.07-4.31c-18.89-6.42-23.13-22.87-9.83-37.69,9.83-11,22.37-19.45,33.28-29.5,13-12,26.36-15.63,43.8-8.33,10.92,4.56,23.82,4.93,35.93,6C428.52,593.47,440.29,599.8,450.47,612Z"/><path class="cls-6" d="M231.36,354.94a42.89,42.89,0,0,1-43.74,42.45C164.29,397,145,377.15,145.45,354a43,43,0,0,1,85.91.91Z"/><path class="cls-6" d="M865.08,615.75a22.61,22.61,0,0,1,8.06,1.24A9.09,9.09,0,0,1,878,621.1,16.16,16.16,0,0,1,879.6,629a16,16,0,0,1-1.26,6.82,9.86,9.86,0,0,1-3.83,4.24l6.68,15.18H869.3L865,642.38h-1.75V655.2H852.54V623.26l-3-7.51ZM863.22,635a5,5,0,0,0,3.73-1.26q1.2-1.26,1.2-4.44a11.7,11.7,0,0,0-.44-3.75,2.64,2.64,0,0,0-1.5-1.67,8.16,8.16,0,0,0-3-.44Z"/><circle class="cls-7" cx="865.49" cy="635.63" r="30.72"/></svg>