<svg id="Layer_1" data-name="Layer 1" xmlns="http://www.w3.org/2000/svg" viewBox="0 0 1080 1080"><defs><style>.cls-1{fill:#fff;}</style></defs><path class="cls-1" d="M560.33,540.93c17.85,15,36.44,29,53.2,44.88,43.53,41.39,73.21,91.62,89.58,149.28,4.46,15.73,13.92,24.35,28.41,27.1a414,414,0,0,0,56.32,7c42.9,2.16,86.08,1,128.25,10.87a166.23,166.23,0,0,1,35.28,12.45A68.42,68.42,0,0,1,973,809.66c18.54,22.18,12.37,50.41-14.4,60.67a173.33,173.33,0,0,1-52.08,11.32c-76,4-152.11,5.37-226.18-15.73-23.12-6.59-45.42-17.35-66.59-28.95a85.78,85.78,0,0,1-30.12-28.39c-28.57-45.36-70.72-67.3-121.84-75.71-29-4.76-58.26-8.23-86.62-15.39C328,705.58,286.28,683.31,256,643.64c-33.43-43.75-36.81-96.91-8.44-138.13,22-31.91,54.1-48.26,91-56.12,48.79-10.41,96.88-4.25,144.71,7,87.84,20.68,169.48,56.88,248.7,99.15,2.53,1.35,5,2.75,7.56,4.1,16,8.51,28.08,6.19,35-6.73,8.05-14.94,4.32-28.71-10.87-37.19C673.11,465.13,579.16,422.41,480,391.05c-51.8-16.39-103.47-33.87-153.6-54.7-56-23.26-98-63.77-126.47-117.75-7.43-14.1-3.51-23.11,12.29-22.61a317.73,317.73,0,0,1,56.25,7.23c112,24.1,217.62,66.25,320.23,116.32C696.2,372,798.82,432.37,891.81,508.16c26.42,21.54,52.05,43.88,70.46,73.22,15.41,24.55,27.16,50.4,30.21,79.59,4.32,41.44-16.86,71.89-58,77.75-66,9.42-122.5-9-165.23-62.72-2.21-2.78-7.46-4.17-11.37-4.33-5.63-.22-11.33,1.32-17,2-16.91,2.13-28.15-5-37.2-19.48C670.23,600.71,622.1,564.91,564,541.7A20.28,20.28,0,0,0,560.33,540.93Zm306.83,37.45c-13.56,0-21.51,5.28-26.4,15-5.81,11.59-5.47,23.19,3.16,33.06,16.2,18.53,36.47,30.89,60.67,35.92,15.94,3.31,23-4.13,18.49-19.53-7.21-24.38-21-44.46-42.44-58.62C876,581.2,870.34,579.73,867.16,578.38Z"/><path class="cls-1" d="M497.56,798.39c-41.3,37.3-85.28,67.51-141.4,72.72a117.38,117.38,0,0,1-47.21-5.8c-25.43-8.65-31.13-30.78-13.24-50.74,13.23-14.75,30.11-26.18,44.8-39.7,17.52-16.14,35.49-21,59-11.22,14.7,6.15,32.06,6.64,48.37,8C468,773.42,483.85,781.94,497.56,798.39Z"/><path class="cls-1" d="M202.62,452.35a57.71,57.71,0,0,1-58.88,57.13C112.34,509,86.37,482.25,87,451.11a57.82,57.82,0,0,1,115.64,1.24Z"/><path class="cls-1" d="M560.33,540.93c17.85,15,36.44,29,53.2,44.88,43.53,41.39,73.21,91.62,89.58,149.28,4.46,15.73,13.92,24.35,28.41,27.1a414,414,0,0,0,56.32,7c42.9,2.16,86.08,1,128.25,10.87a166.23,166.23,0,0,1,35.28,12.45A68.42,68.42,0,0,1,973,809.66c18.54,22.18,12.37,50.41-14.4,60.67a173.33,173.33,0,0,1-52.08,11.32c-76,4-152.11,5.37-226.18-15.73-23.12-6.59-45.42-17.35-66.59-28.95a85.78,85.78,0,0,1-30.12-28.39c-28.57-45.36-70.72-67.3-121.84-75.71-29-4.76-58.26-8.23-86.62-15.39C328,705.58,286.28,683.31,256,643.64c-33.43-43.75-36.81-96.91-8.44-138.13,22-31.91,54.1-48.26,91-56.12,48.79-10.41,96.88-4.25,144.71,7,87.84,20.68,169.48,56.88,248.7,99.15,2.53,1.35,5,2.75,7.56,4.1,16,8.51,28.08,6.19,35-6.73,8.05-14.94,4.32-28.71-10.87-37.19C673.11,465.13,579.16,422.41,480,391.05c-51.8-16.39-103.47-33.87-153.6-54.7-56-23.26-98-63.77-126.47-117.75-7.43-14.1-3.51-23.11,12.29-22.61a317.73,317.73,0,0,1,56.25,7.23c112,24.1,217.62,66.25,320.23,116.32C696.2,372,798.82,432.37,891.81,508.16c26.42,21.54,52.05,43.88,70.46,73.22,15.41,24.55,27.16,50.4,30.21,79.59,4.32,41.44-16.86,71.89-58,77.75-66,9.42-122.5-9-165.23-62.72-2.21-2.78-7.46-4.17-11.37-4.33-5.63-.22-11.33,1.32-17,2-16.91,2.13-28.15-5-37.2-19.48C670.23,600.71,622.1,564.91,564,541.7A20.28,20.28,0,0,0,560.33,540.93Zm306.83,37.45c-13.56,0-21.51,5.28-26.4,15-5.81,11.59-5.47,23.19,3.16,33.06,16.2,18.53,36.47,30.89,60.67,35.92,15.94,3.31,23-4.13,18.49-19.53-7.21-24.38-21-44.46-42.44-58.62C876,581.2,870.34,579.73,867.16,578.38Z"/><path class="cls-1" d="M497.56,798.39c-41.3,37.3-85.28,67.51-141.4,72.72a117.38,117.38,0,0,1-47.21-5.8c-25.43-8.65-31.13-30.78-13.24-50.74,13.23-14.75,30.11-26.18,44.8-39.7,17.52-16.14,35.49-21,59-11.22,14.7,6.15,32.06,6.64,48.37,8C468,773.42,483.85,781.94,497.56,798.39Z"/><path class="cls-1" d="M202.62,452.35a57.71,57.71,0,0,1-58.88,57.13C112.34,509,86.37,482.25,87,451.11a57.82,57.82,0,0,1,115.64,1.24Z"/></svg>