<svg id="Layer_1" data-name="Layer 1" xmlns="http://www.w3.org/2000/svg" viewBox="0 0 1193.26 307.72"><defs><style>.cls-1,.cls-6{font-size:230.13px;font-family:ProtestStrike-Regular, Protest Strike;}.cls-2{letter-spacing:-0.01em;}.cls-3{letter-spacing:-0.02em;}.cls-4{letter-spacing:-0.01em;}.cls-5{letter-spacing:0em;}.cls-6{fill:#ed2a28;}</style></defs><text class="cls-1" transform="translate(125.44 229.35)"><tspan class="cls-2">R</tspan><tspan x="131.86" y="0">G</tspan><tspan class="cls-3" x="257.74" y="0">B</tspan><tspan class="cls-4" x="388.69" y="0">U</tspan><tspan class="cls-5" x="517.56" y="0">NNY</tspan></text><path d="M98.16,269.28V102.9L66.38,23.72H190.8c18.57,0,34.29,2.55,48,7.79a78.33,78.33,0,0,1,41,35c8,14.28,11.91,31.48,11.91,52.59,0,17.82-3,32.79-9.15,45.76a82.45,82.45,0,0,1-4.93,9l42,95.45Z"/><path d="M333.71,271.58c-21.08,0-40.08-4.27-56.47-12.71-18.69-9.61-33.06-24.84-42.7-45.28C226.08,195.7,222,174.12,222,147.65c0-26.95,4.47-49,13.66-67.34C245.76,60,260.55,44.8,279.56,35c17-8.73,36.46-13.15,57.83-13.15a148.18,148.18,0,0,1,23,1.86c6.32,1,12.9,2.18,19.56,3.51l35.86,7.17-8,73.06h11.86V243.09l-18,11.82c-9,5.93-19.59,10.2-32.23,13A163.83,163.83,0,0,1,333.71,271.58Z"/><path d="M355.91,269.28V102.9L324.12,23.72H452.23c28.48,0,51,7.11,66.91,21.14,17.13,15.11,26.18,35.85,26.18,60a92.84,92.84,0,0,1-5.86,33.06c8.32,13,12.53,28.85,12.53,47,0,26.83-11.33,49.94-31.92,65.08-17.63,13-41,19.27-71.3,19.27Z"/><path d="M579.72,271.58c-30.17,0-54.11-8.93-71.16-26.54-16.69-17.24-25.16-42.19-25.16-74.15V23.72H676V170.89c0,31.89-8.39,56.8-24.93,74C634.12,262.61,610.1,271.58,579.72,271.58Z"/><polygon points="612.5 269.28 612.5 95.01 584.12 23.72 819.4 23.72 819.4 269.28 612.5 269.28"/><polygon points="759.32 269.28 759.32 95.01 730.94 23.72 966.22 23.72 966.22 269.28 759.32 269.28"/><polygon points="939.74 269.28 939.74 185.76 880.76 23.72 1123.81 23.72 1064.48 185.79 1064.48 269.28 939.74 269.28"/><text class="cls-6" transform="translate(125.44 229.35)"><tspan class="cls-2">R</tspan><tspan x="131.86" y="0">G</tspan><tspan class="cls-3" x="257.74" y="0">B</tspan><tspan class="cls-4" x="388.69" y="0">U</tspan><tspan class="cls-5" x="517.56" y="0">NNY</tspan></text></svg>